<svg width="168" height="47" viewBox="0 0 168 47" fill="none" xmlns="http://www.w3.org/2000/svg">
<g filter="url(#filter0_d_9_3)">
<path d="M20.7565 0.636363H26.2252V26.4176C26.2252 28.7495 25.7636 30.7441 24.8403 32.4013C23.9288 34.0585 22.6445 35.325 20.9873 36.201C19.3301 37.0651 17.3888 37.4972 15.1634 37.4972C13.1156 37.4972 11.2749 37.1243 9.64142 36.3786C8.01974 35.6328 6.73541 34.5497 5.78844 33.1293C4.85331 31.697 4.38574 29.9569 4.38574 27.9091H9.83674C9.83674 28.9152 10.0676 29.7853 10.5292 30.5192C11.0027 31.2531 11.6478 31.8272 12.4646 32.2415C13.2932 32.6439 14.2401 32.8452 15.3055 32.8452C16.4655 32.8452 17.448 32.6025 18.2529 32.1172C19.0697 31.62 19.6911 30.892 20.1173 29.9332C20.5434 28.9744 20.7565 27.8026 20.7565 26.4176V0.636363ZM51.061 25.6896V9.72727H56.3877V37H51.1675V32.277H50.8834C50.2561 33.733 49.2499 34.9463 47.865 35.9169C46.4919 36.8757 44.7814 37.3551 42.7336 37.3551C40.9817 37.3551 39.431 36.9704 38.0816 36.201C36.744 35.4197 35.6905 34.2656 34.9211 32.7386C34.1635 31.2116 33.7847 29.3236 33.7847 27.0746V9.72727H39.0937V26.4354C39.0937 28.2938 39.6086 29.7734 40.6384 30.8743C41.6682 31.9751 43.0058 32.5256 44.6512 32.5256C45.6455 32.5256 46.6339 32.277 47.6164 31.7798C48.6107 31.2827 49.4334 30.531 50.0844 29.5249C50.7473 28.5187 51.0728 27.2403 51.061 25.6896ZM83.9578 16.3857L79.146 17.2379C78.9448 16.6224 78.6252 16.0365 78.1872 15.4801C77.7611 14.9238 77.1811 14.468 76.4472 14.1129C75.7133 13.7578 74.7959 13.5803 73.695 13.5803C72.1917 13.5803 70.937 13.9176 69.9308 14.5923C68.9247 15.2552 68.4216 16.1134 68.4216 17.1669C68.4216 18.0784 68.759 18.8123 69.4337 19.3686C70.1084 19.925 71.1974 20.3807 72.7007 20.7358L77.0331 21.7301C79.5426 22.3101 81.4129 23.2038 82.6439 24.4112C83.875 25.6186 84.4905 27.187 84.4905 29.1165C84.4905 30.75 84.017 32.206 83.07 33.4844C82.1349 34.7509 80.8269 35.7453 79.146 36.4673C77.477 37.1894 75.5416 37.5504 73.3399 37.5504C70.286 37.5504 67.7942 36.8994 65.8648 35.5973C63.9353 34.2834 62.7516 32.419 62.3137 30.0043L67.445 29.223C67.7646 30.5606 68.4216 31.5727 69.4159 32.2592C70.4102 32.9339 71.7064 33.2713 73.3044 33.2713C75.0445 33.2713 76.4353 32.9103 77.477 32.1882C78.5187 31.4543 79.0395 30.5606 79.0395 29.5071C79.0395 28.6548 78.7199 27.9387 78.0807 27.3587C77.4533 26.7786 76.4886 26.3407 75.1865 26.0447L70.57 25.0327C68.0251 24.4527 66.143 23.5294 64.9237 22.2628C63.7164 20.9962 63.1127 19.3923 63.1127 17.451C63.1127 15.8411 63.5625 14.4325 64.4621 13.2251C65.3617 12.0178 66.6046 11.0767 68.1908 10.402C69.777 9.71544 71.594 9.37216 73.6418 9.37216C76.5892 9.37216 78.9093 10.0114 80.602 11.2898C82.2947 12.5563 83.4133 14.255 83.9578 16.3857ZM103.059 9.72727V13.9886H88.1615V9.72727H103.059ZM92.1565 3.19318H97.4655V28.9922C97.4655 30.022 97.6193 30.7973 97.9271 31.3182C98.2349 31.8272 98.6314 32.1764 99.1167 32.3658C99.6139 32.5433 100.152 32.6321 100.733 32.6321C101.159 32.6321 101.532 32.6025 101.851 32.5433C102.171 32.4841 102.419 32.4368 102.597 32.4013L103.556 36.7869C103.248 36.9053 102.81 37.0237 102.242 37.142C101.674 37.2723 100.963 37.3433 100.111 37.3551C98.7143 37.3788 97.4122 37.1302 96.2048 36.6094C94.9974 36.0885 94.0209 35.2836 93.2751 34.1946C92.5294 33.1056 92.1565 31.7384 92.1565 30.093V3.19318Z" fill="white"/>
<path d="M109.357 37V0.636363H122.319C125.148 0.636363 127.492 1.15128 129.35 2.18111C131.209 3.21094 132.6 4.61955 133.523 6.40696C134.446 8.18253 134.908 10.183 134.908 12.4084C134.908 14.6456 134.44 16.6579 133.505 18.4453C132.582 20.2209 131.185 21.6295 129.315 22.6712C127.456 23.701 125.118 24.2159 122.301 24.2159H113.388V19.5639H121.804C123.591 19.5639 125.042 19.2562 126.154 18.6406C127.267 18.0133 128.084 17.161 128.604 16.0838C129.125 15.0066 129.386 13.7815 129.386 12.4084C129.386 11.0353 129.125 9.81605 128.604 8.75071C128.084 7.68537 127.261 6.85085 126.136 6.24716C125.024 5.64347 123.556 5.34162 121.733 5.34162H114.844V37H109.357ZM152.06 37.5504C149.42 37.5504 147.147 36.9527 145.242 35.7571C143.348 34.5497 141.892 32.8866 140.874 30.7678C139.856 28.6489 139.347 26.2223 139.347 23.4879C139.347 20.718 139.868 18.2737 140.909 16.1548C141.951 14.0241 143.419 12.361 145.313 11.1655C147.207 9.96993 149.438 9.37216 152.006 9.37216C154.078 9.37216 155.925 9.75687 157.546 10.5263C159.168 11.2839 160.476 12.3492 161.47 13.7223C162.476 15.0954 163.074 16.6993 163.264 18.5341H158.097C157.813 17.2557 157.162 16.1548 156.144 15.2315C155.137 14.3082 153.788 13.8466 152.095 13.8466C150.616 13.8466 149.319 14.2372 148.207 15.0185C147.106 15.7879 146.248 16.8887 145.632 18.321C145.017 19.7415 144.709 21.4223 144.709 23.3636C144.709 25.3523 145.011 27.0687 145.614 28.5128C146.218 29.9569 147.07 31.0755 148.171 31.8686C149.284 32.6617 150.592 33.0582 152.095 33.0582C153.101 33.0582 154.013 32.8748 154.83 32.5078C155.658 32.129 156.351 31.5904 156.907 30.892C157.475 30.1937 157.872 29.3532 158.097 28.3707H163.264C163.074 30.1345 162.5 31.7088 161.541 33.0938C160.582 34.4787 159.298 35.5677 157.688 36.3608C156.09 37.1539 154.214 37.5504 152.06 37.5504Z" fill="#64F279"/>
</g>
<defs>
<filter id="filter0_d_9_3" x="0.385742" y="0.63636" width="166.878" height="45.9141" filterUnits="userSpaceOnUse" color-interpolation-filters="sRGB">
<feFlood flood-opacity="0" result="BackgroundImageFix"/>
<feColorMatrix in="SourceAlpha" type="matrix" values="0 0 0 0 0 0 0 0 0 0 0 0 0 0 0 0 0 0 127 0" result="hardAlpha"/>
<feOffset dy="5"/>
<feGaussianBlur stdDeviation="2"/>
<feComposite in2="hardAlpha" operator="out"/>
<feColorMatrix type="matrix" values="0 0 0 0 0 0 0 0 0 0 0 0 0 0 0 0 0 0 0.25 0"/>
<feBlend mode="normal" in2="BackgroundImageFix" result="effect1_dropShadow_9_3"/>
<feBlend mode="normal" in="SourceGraphic" in2="effect1_dropShadow_9_3" result="shape"/>
</filter>
</defs>
</svg>
