<svg width="27" height="24" viewBox="0 0 27 24" fill="none" xmlns="http://www.w3.org/2000/svg">
<path d="M20.0618 0.537438L1.0651 12.635C0.683159 12.8782 0.570712 13.385 0.813941 13.767L5.64042 21.346C5.88365 21.7279 6.39045 21.8404 6.77239 21.5971L25.7691 9.49954C26.151 9.25632 26.2635 8.74951 26.0203 8.36757L21.1938 0.788596C20.9506 0.406655 20.4438 0.294208 20.0618 0.537438Z" fill="#91CD86"/>
<path d="M22.4734 2.80114L24.741 6.35878C24.4025 6.57437 24.1097 6.85454 23.8795 7.18329C23.6492 7.51203 23.4859 7.88291 23.399 8.27476C23.3121 8.6666 23.3032 9.07172 23.3729 9.467C23.4425 9.86227 23.5894 10.24 23.805 10.5785C23.831 10.6195 23.8583 10.6598 23.8856 10.6994L8.65685 20.398C8.63225 20.357 8.60697 20.3147 8.58101 20.2737C8.36558 19.935 8.08553 19.642 7.75686 19.4115C7.42819 19.1811 7.05734 19.0176 6.66549 18.9305C6.27363 18.8434 5.86846 18.8343 5.4731 18.9038C5.07774 18.9733 4.69995 19.1201 4.36131 19.3356L2.09363 15.7766C2.43218 15.561 2.72494 15.2808 2.95521 14.9521C3.18547 14.6233 3.34872 14.2524 3.43564 13.8606C3.52257 13.4688 3.53145 13.0636 3.46179 12.6684C3.39214 12.2731 3.2453 11.8954 3.02967 11.5569C3.00371 11.5159 2.97638 11.4756 2.94905 11.436L18.1751 1.73734C18.1997 1.77833 18.225 1.82069 18.2509 1.86169C18.4663 2.20088 18.7463 2.49429 19.0752 2.72513C19.404 2.95596 19.7752 3.1197 20.1673 3.20695C20.5595 3.29421 20.9651 3.30328 21.3608 3.23365C21.7564 3.16401 22.1345 3.01704 22.4734 2.80114Z" fill="#A9EA9C"/>
<path d="M6.33459 22.1369C6.12746 22.1372 5.9236 22.0852 5.74193 21.9857C5.56026 21.8862 5.40666 21.7424 5.29538 21.5677L0.468282 13.9879C0.293084 13.7128 0.234323 13.3794 0.304922 13.061C0.375522 12.7426 0.569699 12.4652 0.844748 12.29L19.8389 0.192525C20.1139 0.0173275 20.4473 -0.0414336 20.7657 0.0291656C21.0842 0.0997647 21.3615 0.293942 21.5367 0.568991L26.3631 8.14819C26.5383 8.42327 26.5971 8.75667 26.5265 9.07508C26.4559 9.39348 26.2617 9.6708 25.9867 9.84604L6.99256 21.9435C6.79616 22.0694 6.56787 22.1365 6.33459 22.1369ZM20.4982 0.81974C20.421 0.819641 20.3453 0.841694 20.2802 0.883282L1.28544 12.9814C1.19423 13.0403 1.13007 13.1328 1.10701 13.2389C1.08396 13.3449 1.1039 13.4558 1.16246 13.5472L5.98682 21.1264C6.04575 21.2175 6.13838 21.2815 6.24442 21.3044C6.35046 21.3273 6.46126 21.3073 6.55255 21.2487L25.5494 9.15529C25.6411 9.09691 25.7058 9.00453 25.7294 8.89845C25.7529 8.79237 25.7334 8.68127 25.6751 8.58956L20.848 1.009C20.7894 0.917688 20.6971 0.853317 20.5911 0.829989C20.5606 0.823127 20.5294 0.81969 20.4982 0.81974Z" fill="#1D6855"/>
<path d="M2.33759 13.4597L5.71349 11.3095C5.82417 11.2412 5.72169 11.0615 5.61032 11.1326L2.23374 13.28C2.12306 13.3483 2.22554 13.528 2.33691 13.457L2.33759 13.4597Z" fill="white"/>
<path d="M6.20478 10.9939L7.86232 9.93827C7.97301 9.86995 7.87052 9.69026 7.75916 9.76131L6.10093 10.8169C5.99024 10.8852 6.09273 11.0649 6.2041 10.9939H6.20478Z" fill="white"/>
<path d="M6.76843 20.6864L14.6038 15.6987L15.697 15.0004C15.8077 14.9321 15.7052 14.7524 15.5939 14.8235L7.76186 19.8139L6.66868 20.5121C6.55799 20.5805 6.66048 20.7601 6.77185 20.6891L6.76843 20.6864Z" fill="white"/>
<path d="M18.0494 13.5451L23.8269 9.86585L24.6508 9.34112C24.7615 9.2728 24.659 9.0931 24.5477 9.16416L18.7709 12.8448L17.9469 13.3695C17.8362 13.4378 17.9387 13.6175 18.05 13.5465L18.0494 13.5451Z" fill="white"/>
<path d="M14.1754 11.2556C13.9656 10.9263 13.6356 10.8272 13.1307 10.9379C12.7549 11.0062 12.5841 11.0315 12.4912 10.8818C12.4229 10.7718 12.4611 10.5922 12.6907 10.4459C12.8544 10.3374 13.0419 10.2704 13.2373 10.2505L13.0897 9.7545C12.874 9.77982 12.6671 9.85464 12.485 9.97313L12.2309 9.57275L11.8312 9.82692L12.114 10.2717C11.8339 10.5874 11.795 10.9611 11.9911 11.2692C12.207 11.6109 12.5903 11.6594 13.0692 11.5514C13.406 11.4633 13.5734 11.4831 13.6623 11.6197C13.7641 11.7796 13.6978 11.9614 13.4573 12.1144C13.254 12.2387 13.0259 12.3168 12.7891 12.3433L12.9428 12.8489C13.1783 12.8173 13.4051 12.7388 13.6097 12.618L13.8652 13.0197L14.2649 12.7655L14.2013 12.6658L13.9902 12.3337C14.3551 11.9778 14.3776 11.5733 14.1754 11.2556Z" fill="#34B67A"/>
<path d="M13.0556 15.3181C12.3578 15.3192 11.6717 15.1385 11.0649 14.7937C10.4582 14.4488 9.95183 13.9519 9.59566 13.3518C9.23949 12.7516 9.04584 12.0691 9.0338 11.3713C9.02176 10.6736 9.19175 9.98473 9.527 9.37268C9.86226 8.76063 10.3512 8.2465 10.9457 7.88096C11.5401 7.51543 12.2196 7.3111 12.9171 7.28813C13.6145 7.26515 14.306 7.42432 14.9232 7.74993C15.5404 8.07555 16.0622 8.55639 16.437 9.14505C16.8235 9.75167 17.04 10.451 17.0638 11.1699C17.0875 11.8888 16.9178 12.6009 16.5722 13.2318C16.2267 13.8626 15.718 14.3891 15.0994 14.7561C14.4808 15.1231 13.7749 15.3172 13.0556 15.3181ZM13.0426 7.96782C12.3025 7.96894 11.5839 8.21622 10.9998 8.6707C10.4157 9.12517 9.99933 9.76104 9.81634 10.4781C9.63335 11.1952 9.6941 11.9529 9.98901 12.6316C10.2839 13.3104 10.7963 13.8718 11.4453 14.2274C12.0944 14.583 12.8433 14.7126 13.5741 14.5958C14.3049 14.479 14.9761 14.1224 15.4819 13.5822C15.9878 13.042 16.2996 12.3489 16.3682 11.612C16.4369 10.8751 16.2584 10.1363 15.861 9.51195C15.6268 9.14199 15.3215 8.82216 14.9629 8.57095C14.6043 8.31974 14.1994 8.14215 13.7717 8.04844C13.5323 7.99507 13.2879 7.96803 13.0426 7.96782Z" fill="#91CD86"/>
<path d="M23.2162 6.07708L1.47212 11.9441C1.03494 12.062 0.776167 12.5121 0.894127 12.9493L3.23484 21.6243C3.3528 22.0615 3.80283 22.3203 4.24001 22.2023L25.9841 16.3353C26.4213 16.2174 26.68 15.7673 26.5621 15.3301L24.2214 6.65508C24.1034 6.2179 23.6534 5.95912 23.2162 6.07708Z" fill="#91CD86"/>
<path d="M24.8415 8.95647L25.9409 13.032C25.5533 13.1365 25.1902 13.3163 24.8721 13.5612C24.5541 13.806 24.2874 14.1112 24.0873 14.4591C23.8872 14.807 23.7576 15.191 23.7059 15.589C23.6541 15.9871 23.6813 16.3914 23.7859 16.7789C23.7989 16.826 23.8126 16.8725 23.8269 16.9156L6.39536 21.621C6.38443 21.5746 6.37281 21.5267 6.36051 21.4796C6.25601 21.0921 6.0762 20.7289 5.83134 20.4109C5.58647 20.0928 5.28136 19.8261 4.93342 19.626C4.58548 19.4259 4.20153 19.2963 3.8035 19.2446C3.40546 19.1929 3.00114 19.2201 2.61362 19.3247L1.51428 15.2491C1.90182 15.1446 2.26498 14.9648 2.58302 14.7199C2.90105 14.4751 3.16774 14.17 3.36785 13.822C3.56796 13.4741 3.69757 13.0901 3.74928 12.6921C3.80099 12.2941 3.77379 11.8897 3.66923 11.5022C3.65624 11.4551 3.64258 11.4086 3.62823 11.3656L21.0598 6.6601C21.0707 6.70656 21.0823 6.75438 21.0946 6.80153C21.1991 7.18906 21.3789 7.55222 21.6238 7.87026C21.8687 8.1883 22.1738 8.45499 22.5217 8.6551C22.8697 8.8552 23.2536 8.98482 23.6516 9.03653C24.0497 9.08824 24.454 9.06103 24.8415 8.95647Z" fill="#A9EA9C"/>
<path d="M4.02514 22.6411C3.755 22.6401 3.49263 22.5506 3.27826 22.3862C3.06389 22.2218 2.90936 21.9917 2.83835 21.731L0.498246 13.0539C0.456288 12.8978 0.445486 12.7351 0.46646 12.5749C0.487433 12.4146 0.53977 12.2601 0.62048 12.1202C0.701189 11.9802 0.80869 11.8575 0.936838 11.7591C1.06499 11.6607 1.21127 11.5885 1.36733 11.5466L23.1094 5.68305C23.2654 5.64095 23.4281 5.62999 23.5883 5.65078C23.7485 5.67157 23.903 5.72371 24.043 5.80423C24.183 5.88474 24.3058 5.99205 24.4044 6.12002C24.5029 6.248 24.5753 6.39413 24.6174 6.55008L26.9575 15.2273C26.9996 15.3832 27.0105 15.5459 26.9897 15.7061C26.9689 15.8663 26.9168 16.0208 26.8363 16.1608C26.7558 16.3008 26.6485 16.4236 26.5205 16.5222C26.3925 16.6207 26.2464 16.6931 26.0904 16.7352L4.34558 22.5987C4.24109 22.6269 4.13335 22.6411 4.02514 22.6411ZM23.4292 6.4599C23.3934 6.45999 23.3578 6.46481 23.3233 6.47424L1.57845 12.3399C1.52622 12.3539 1.47728 12.3781 1.43444 12.4111C1.3916 12.4441 1.35572 12.4852 1.32886 12.5322C1.30199 12.5791 1.28468 12.6309 1.27791 12.6845C1.27115 12.7382 1.27507 12.7927 1.28944 12.8448L3.62954 21.522C3.65787 21.6268 3.72667 21.7162 3.82083 21.7704C3.91499 21.8246 4.02681 21.8392 4.13172 21.811L25.8766 15.9453C25.929 15.9317 25.9783 15.9078 26.0214 15.875C26.0646 15.8422 26.1008 15.8011 26.128 15.7543C26.1552 15.7074 26.1728 15.6555 26.1799 15.6018C26.1869 15.548 26.1832 15.4934 26.169 15.4411L23.8255 6.76394C23.8015 6.67699 23.7497 6.60027 23.678 6.5455C23.6063 6.49073 23.5187 6.46091 23.4285 6.46058L23.4292 6.4599Z" fill="#1D6855"/>
<path d="M4.51029 21.3306L13.4785 18.9113L14.7336 18.5697C14.7591 18.5618 14.7805 18.5443 14.7933 18.5209C14.8061 18.4975 14.8093 18.4701 14.8021 18.4444C14.795 18.4187 14.7782 18.3968 14.7552 18.3833C14.7322 18.3699 14.7049 18.3659 14.679 18.3722L5.71211 20.795L4.457 21.1366C4.43153 21.1445 4.41013 21.162 4.39734 21.1853C4.38455 21.2087 4.38137 21.2362 4.38848 21.2619C4.39559 21.2876 4.41243 21.3095 4.43543 21.3229C4.45842 21.3364 4.48577 21.3404 4.51166 21.3341L4.51029 21.3306Z" fill="white"/>
<path d="M17.4119 17.8885L24.025 16.1045L24.9679 15.8511C24.9933 15.8432 25.0147 15.8257 25.0275 15.8023C25.0403 15.7789 25.0435 15.7515 25.0364 15.7258C25.0293 15.7001 25.0124 15.6782 24.9894 15.6647C24.9664 15.6512 24.9391 15.6473 24.9132 15.6536L18.3001 17.4375L17.3552 17.691C17.3297 17.6989 17.3083 17.7164 17.2955 17.7398C17.2827 17.7631 17.2796 17.7906 17.2867 17.8163C17.2938 17.842 17.3106 17.8639 17.3336 17.8774C17.3566 17.8908 17.384 17.8948 17.4098 17.8885H17.4119Z" fill="white"/>
<path d="M14.3947 14.5468C14.2929 14.1696 14.008 13.9769 13.4928 13.9318C13.113 13.8874 12.9462 13.8587 12.8998 13.6872C12.8656 13.5615 12.9579 13.4016 13.2209 13.3306C13.4104 13.2757 13.6105 13.2679 13.8037 13.308L13.8112 12.7908C13.5978 12.7506 13.378 12.7601 13.169 12.8188L13.0453 12.3597L12.5882 12.4834L12.7249 12.9924C12.3634 13.2096 12.2145 13.5547 12.3095 13.9072C12.414 14.296 12.7652 14.4586 13.2537 14.4989C13.6015 14.5153 13.7552 14.5843 13.8003 14.7442C13.8495 14.9273 13.732 15.0817 13.4587 15.1542C13.2274 15.2122 12.9863 15.2187 12.7522 15.1733L12.7474 15.7021C12.9817 15.7424 13.2217 15.7351 13.4532 15.6809L13.5776 16.1408L14.0346 16.0171L14.0039 15.903L13.9014 15.5231C14.3489 15.2894 14.4931 14.9102 14.3947 14.5468Z" fill="#34B67A"/>
<path d="M13.2995 18.2732C12.5503 18.272 11.8163 18.0613 11.1805 17.6649C10.5447 17.2685 10.0324 16.7022 9.70152 16.03C9.37061 15.3578 9.23427 14.6065 9.3079 13.8609C9.38153 13.1153 9.6622 12.4051 10.1182 11.8106C10.5742 11.2161 11.1873 10.761 11.8884 10.4966C12.5894 10.2323 13.3504 10.1692 14.0854 10.3146C14.8204 10.46 15.5001 10.808 16.0478 11.3193C16.5954 11.8307 16.9891 12.485 17.1844 13.2083C17.3443 13.8043 17.3648 14.4291 17.2446 15.0343C17.1243 15.6396 16.8664 16.209 16.4908 16.6986C16.1153 17.1883 15.6321 17.5849 15.0787 17.8579C14.5254 18.131 13.9166 18.273 13.2995 18.2732ZM13.305 10.9208C12.6083 10.921 11.9291 11.1394 11.363 11.5455C10.7968 11.9515 10.3721 12.5247 10.1486 13.1846C9.92499 13.8444 9.91378 14.5578 10.1165 15.2243C10.3192 15.8909 10.7257 16.4772 11.2788 16.9008C11.8319 17.3244 12.5039 17.5641 13.2002 17.5862C13.8966 17.6083 14.5823 17.4116 15.1612 17.0238C15.74 16.636 16.1828 16.0767 16.4273 15.4243C16.6718 14.7719 16.7058 14.0593 16.5244 13.3866C16.3346 12.6782 15.9161 12.0524 15.3339 11.6064C14.7516 11.1605 14.0384 10.9195 13.305 10.9208Z" fill="#91CD86"/>
<path d="M24.1125 12.5794L1.60725 11.7188C1.15477 11.7015 0.773937 12.0543 0.756633 12.5067L0.413274 21.4855C0.39597 21.938 0.748752 22.3188 1.20123 22.3361L23.7065 23.1967C24.159 23.214 24.5398 22.8613 24.5571 22.4088L24.9005 13.43C24.9178 12.9776 24.565 12.5967 24.1125 12.5794Z" fill="#91CD86"/>
<path d="M24.8079 15.8128L24.646 20.0304C24.2448 20.015 23.8445 20.0787 23.468 20.218C23.0914 20.3573 22.746 20.5695 22.4515 20.8423C22.157 21.1151 21.9191 21.4433 21.7514 21.8081C21.5838 22.1729 21.4896 22.5672 21.4744 22.9684V23.1139L3.43682 22.4225C3.43682 22.3746 3.44365 22.3261 3.44502 22.2769C3.46048 21.8758 3.39674 21.4755 3.25744 21.0989C3.11814 20.7224 2.90601 20.377 2.63317 20.0824C2.36034 19.7879 2.03214 19.55 1.66734 19.3823C1.30254 19.2147 0.908275 19.1206 0.50708 19.1053L0.669008 14.8877C1.07019 14.9031 1.4705 14.8394 1.84704 14.7001C2.22358 14.5608 2.56899 14.3487 2.86352 14.0758C3.15806 13.803 3.39595 13.4748 3.5636 13.11C3.73125 12.7452 3.82539 12.3509 3.84062 11.9497C3.84062 11.9012 3.84062 11.852 3.84062 11.8042L21.8782 12.4957C21.8782 12.5435 21.8714 12.592 21.87 12.6412C21.8545 13.0424 21.9183 13.4427 22.0576 13.8192C22.1969 14.1958 22.409 14.5412 22.6818 14.8357C22.9547 15.1302 23.2829 15.3681 23.6477 15.5358C24.0125 15.7034 24.4067 15.7976 24.8079 15.8128Z" fill="#A9EA9C"/>
<path d="M23.7367 23.6093H23.6889L1.18358 22.7456C1.02215 22.7396 0.863509 22.7018 0.716705 22.6344C0.5699 22.567 0.437811 22.4713 0.327984 22.3528C0.218156 22.2344 0.13274 22.0954 0.0766158 21.944C0.0204915 21.7925 -0.00524205 21.6315 0.000885028 21.47L0.342506 12.4909C0.348668 12.3294 0.386572 12.1708 0.454053 12.024C0.521533 11.8773 0.617269 11.7452 0.735789 11.6355C0.85431 11.5257 0.993295 11.4404 1.1448 11.3843C1.29631 11.3283 1.45738 11.3026 1.6188 11.3089L24.1241 12.1711C24.2855 12.1773 24.4441 12.2152 24.5909 12.2827C24.7377 12.3501 24.8697 12.4459 24.9795 12.5644C25.0893 12.6829 25.1746 12.8219 25.2306 12.9734C25.2867 13.1249 25.3123 13.286 25.3061 13.4474L24.9645 22.4266C24.9523 22.7441 24.8176 23.0447 24.5888 23.2652C24.3599 23.4857 24.0545 23.609 23.7367 23.6093ZM23.7203 22.7894C23.7741 22.7915 23.8279 22.7829 23.8784 22.7643C23.929 22.7456 23.9753 22.7171 24.0149 22.6805C24.0544 22.6439 24.0863 22.5998 24.1088 22.5509C24.1313 22.5019 24.1439 22.449 24.146 22.3951L24.4876 13.416C24.4897 13.3621 24.4811 13.3084 24.4625 13.2579C24.4438 13.2073 24.4153 13.161 24.3787 13.1214C24.3421 13.0819 24.298 13.05 24.2491 13.0275C24.2001 13.005 24.1472 12.9923 24.0933 12.9903L1.59079 12.1288C1.53677 12.1263 1.48281 12.1345 1.43199 12.153C1.38117 12.1715 1.33451 12.1998 1.29469 12.2364C1.25487 12.273 1.22269 12.3171 1.19998 12.3661C1.17728 12.4152 1.1645 12.4683 1.1624 12.5223L0.820775 21.5015C0.818671 21.5553 0.827204 21.609 0.845884 21.6596C0.864564 21.7101 0.893026 21.7565 0.929642 21.796C0.966257 21.8356 1.01031 21.8675 1.05927 21.89C1.10824 21.9125 1.16116 21.9251 1.21501 21.9271L23.7203 22.7894Z" fill="#1D6855"/>
<path d="M16.586 13.9325L20.5857 14.0856C20.8494 14.0958 20.8494 13.6859 20.5857 13.6756L16.586 13.5226C16.3223 13.5123 16.3223 13.9223 16.586 13.9325Z" fill="white"/>
<path d="M21.6385 14.1081L23.6021 14.1833C23.8658 14.1935 23.8658 13.7836 23.6021 13.7733L21.6385 13.6982C21.3747 13.6879 21.3747 14.0979 21.6385 14.1081Z" fill="white"/>
<path d="M16.7404 9.3917L20.6301 8.44746C20.8863 8.38529 20.7777 7.98969 20.5208 8.05186L16.6311 8.9961C16.3748 9.05828 16.4835 9.45388 16.7404 9.3917Z" fill="white"/>
<path d="M21.6481 8.18236L23.5578 7.72049C23.814 7.65831 23.7053 7.26271 23.4484 7.32489L21.5388 7.78881C21.2826 7.85099 21.3912 8.24658 21.6481 8.18441V8.18236Z" fill="white"/>
<path d="M1.98234 21.0765L5.98204 21.2295C6.24577 21.2398 6.24577 20.8298 5.98204 20.8196L1.98234 20.6666C1.71861 20.6563 1.71861 21.0663 1.98234 21.0765Z" fill="white"/>
<path d="M7.03825 21.2487L9.00189 21.3238C9.26562 21.3341 9.26562 20.9241 9.00189 20.9139L7.03825 20.8387C6.77452 20.8285 6.77452 21.2384 7.03825 21.2487Z" fill="white"/>
<path d="M13.1717 18.0449C13.1867 17.6548 12.9715 17.3856 12.4932 17.1895C12.1434 17.0337 11.9924 16.9572 11.9992 16.7796C12.004 16.6498 12.1393 16.524 12.4092 16.535C12.6064 16.5389 12.7997 16.591 12.9722 16.6867L13.1334 16.1954C12.9416 16.0933 12.7288 16.037 12.5117 16.0307L12.5301 15.5525L12.0566 15.534L12.0361 16.0608C11.6262 16.1606 11.3816 16.4462 11.3672 16.8124C11.3515 17.2148 11.6405 17.4744 12.0928 17.6575C12.4201 17.7764 12.5458 17.8885 12.5397 18.0538C12.5321 18.2431 12.3743 18.3558 12.0901 18.3449C11.851 18.3319 11.6177 18.2664 11.4069 18.1529L11.2456 18.6564C11.4583 18.7648 11.6907 18.8292 11.9288 18.8457L11.9104 19.324L12.3839 19.3424L12.3887 19.2242L12.4037 18.8314C12.9086 18.7412 13.1573 18.4214 13.1717 18.0449Z" fill="#91CD86"/>
<path d="M12.2206 20.8442C12.1751 20.8442 12.1311 20.8442 12.0887 20.8442C11.4164 20.8184 10.7668 20.5939 10.2221 20.1989C9.67743 19.804 9.26206 19.2564 9.02857 18.6254C8.79507 17.9944 8.75393 17.3083 8.91035 16.654C9.06676 15.9996 9.41371 15.4063 9.90731 14.9491C10.4009 14.4919 11.019 14.1913 11.6834 14.0854C12.3479 13.9795 13.0288 14.0729 13.6401 14.354C14.2514 14.6351 14.7656 15.0911 15.1177 15.6644C15.4699 16.2377 15.6441 16.9025 15.6184 17.5749C15.5831 18.4529 15.2099 19.2833 14.5767 19.8925C13.9435 20.5018 13.0993 20.8428 12.2206 20.8442ZM12.2206 14.7237C11.5187 14.7384 10.8498 15.024 10.3537 15.5207C9.85765 16.0175 9.57299 16.6868 9.5593 17.3887C9.54562 18.0906 9.80398 18.7706 10.2803 19.2863C10.7566 19.802 11.4139 20.1135 12.1147 20.1555H12.2199C12.9225 20.1543 13.5973 19.8815 14.1034 19.3941C14.6094 18.9068 14.9074 18.2427 14.9351 17.5407C14.9489 17.1839 14.8922 16.8279 14.7683 16.493C14.6444 16.1581 14.4558 15.8509 14.2131 15.589C13.9705 15.327 13.6787 15.1154 13.3542 14.9662C13.0298 14.817 12.6792 14.7332 12.3224 14.7196L12.2206 14.7237Z" fill="#91CD86"/>
</svg>
