<svg width="62" height="47" viewBox="0 0 62 47" fill="none" xmlns="http://www.w3.org/2000/svg">
<g filter="url(#filter0_d_17_3)">
<path d="M3.99015 37V0.636363H16.9518C19.7809 0.636363 22.1246 1.15128 23.983 2.18111C25.8415 3.21094 27.2323 4.61955 28.1556 6.40696C29.0789 8.18253 29.5406 10.183 29.5406 12.4084C29.5406 14.6456 29.073 16.6579 28.1379 18.4453C27.2146 20.2209 25.8178 21.6295 23.9475 22.6712C22.0891 23.701 19.7513 24.2159 16.934 24.2159H8.02069V19.5639H16.4369C18.2243 19.5639 19.6743 19.2562 20.787 18.6406C21.8997 18.0133 22.7165 17.161 23.2373 16.0838C23.7581 15.0066 24.0186 13.7815 24.0186 12.4084C24.0186 11.0353 23.7581 9.81605 23.2373 8.75071C22.7165 7.68537 21.8938 6.85085 20.7693 6.24716C19.6566 5.64347 18.1888 5.34162 16.3659 5.34162H9.47665V37H3.99015ZM46.6926 37.5504C44.0529 37.5504 41.7802 36.9527 39.8744 35.7571C37.9804 34.5497 36.5245 32.8866 35.5065 30.7678C34.4885 28.6489 33.9795 26.2223 33.9795 23.4879C33.9795 20.718 34.5003 18.2737 35.542 16.1548C36.5837 14.0241 38.0515 12.361 39.9454 11.1655C41.8393 9.96993 44.0706 9.37216 46.6393 9.37216C48.7108 9.37216 50.5574 9.75687 52.1791 10.5263C53.8008 11.2839 55.1088 12.3492 56.1031 13.7223C57.1092 15.0954 57.707 16.6993 57.8964 18.5341H52.7295C52.4454 17.2557 51.7944 16.1548 50.7764 15.2315C49.7702 14.3082 48.4208 13.8466 46.7281 13.8466C45.2484 13.8466 43.9523 14.2372 42.8396 15.0185C41.7387 15.7879 40.8805 16.8887 40.265 18.321C39.6495 19.7415 39.3417 21.4223 39.3417 23.3636C39.3417 25.3523 39.6436 27.0687 40.2472 28.5128C40.8509 29.9569 41.7032 31.0755 42.8041 31.8686C43.9168 32.6617 45.2248 33.0582 46.7281 33.0582C47.7342 33.0582 48.6457 32.8748 49.4624 32.5078C50.291 32.129 50.9835 31.5904 51.5399 30.892C52.108 30.1937 52.5046 29.3532 52.7295 28.3707H57.8964C57.707 30.1345 57.1329 31.7088 56.1741 33.0938C55.2153 34.4787 53.931 35.5677 52.3211 36.3608C50.7231 37.1539 48.8469 37.5504 46.6926 37.5504Z" fill="#64F279"/>
</g>
<defs>
<filter id="filter0_d_17_3" x="-0.0098877" y="0.63636" width="61.9062" height="45.9141" filterUnits="userSpaceOnUse" color-interpolation-filters="sRGB">
<feFlood flood-opacity="0" result="BackgroundImageFix"/>
<feColorMatrix in="SourceAlpha" type="matrix" values="0 0 0 0 0 0 0 0 0 0 0 0 0 0 0 0 0 0 127 0" result="hardAlpha"/>
<feOffset dy="5"/>
<feGaussianBlur stdDeviation="2"/>
<feComposite in2="hardAlpha" operator="out"/>
<feColorMatrix type="matrix" values="0 0 0 0 0 0 0 0 0 0 0 0 0 0 0 0 0 0 0.25 0"/>
<feBlend mode="normal" in2="BackgroundImageFix" result="effect1_dropShadow_17_3"/>
<feBlend mode="normal" in="SourceGraphic" in2="effect1_dropShadow_17_3" result="shape"/>
</filter>
</defs>
</svg>
